<?xml version="1.0" encoding="utf-8"?>
<!-- Generator: Adobe Illustrator 25.0.1, SVG Export Plug-In . SVG Version: 6.00 Build 0)  -->
<svg version="1.1" xmlns="http://www.w3.org/2000/svg" xmlns:xlink="http://www.w3.org/1999/xlink" x="0px" y="0px"
	 viewBox="0 0 1200 800" style="enable-background:new 0 0 1200 800;" xml:space="preserve">
<style type="text/css">
	.st0{opacity:0.35;}
	.st1{clip-path:url(#SVGID_2_);fill:#E7E7E7;}
	.st2{opacity:0.1;clip-path:url(#SVGID_2_);fill:url(#SVGID_3_);}
	.st3{clip-path:url(#SVGID_2_);}
	.st4{fill:#FFFFFF;}
	.st5{fill:#E7E7E7;}
	.st6{opacity:0.1;fill:url(#SVGID_4_);}
	.st7{clip-path:url(#SVGID_6_);}
</style>
<g id="_x31_200_x__x_800_px" class="st0">
	<g>
		<g>
			<defs>
				<rect id="SVGID_1_" width="1200" height="800"/>
			</defs>
			<clipPath id="SVGID_2_">
				<use xlink:href="#SVGID_1_"  style="overflow:visible;"/>
			</clipPath>
			<rect y="-1.4" class="st1" width="1200" height="800"/>
			
				<radialGradient id="SVGID_3_" cx="990.7672" cy="398.6048" r="400" gradientTransform="matrix(1.5 0 0 1 -886.1507 0)" gradientUnits="userSpaceOnUse">
				<stop  offset="0" style="stop-color:#FFFFFF"/>
				<stop  offset="0.1108" style="stop-color:#FAFAFA"/>
				<stop  offset="0.2348" style="stop-color:#EDEDED"/>
				<stop  offset="0.3651" style="stop-color:#D7D7D7"/>
				<stop  offset="0.4999" style="stop-color:#B7B7B7"/>
				<stop  offset="0.6381" style="stop-color:#8F8F8F"/>
				<stop  offset="0.7792" style="stop-color:#5D5D5D"/>
				<stop  offset="0.9199" style="stop-color:#242424"/>
				<stop  offset="1" style="stop-color:#000000"/>
			</radialGradient>
			<rect y="-1.4" class="st2" width="1200" height="800"/>
			<g class="st3">
				<polygon class="st4" points="298.45,-15.62 645.83,815.47 646.91,815.47 299.53,-15.62 				"/>
			</g>
			<g class="st3">
				<polygon class="st4" points="649.77,-15.62 316.51,815.47 317.59,815.47 650.85,-15.62 				"/>
			</g>
			<g class="st3">
				<polygon class="st4" points="1214.1,152.67 -13.02,266.58 -13.02,267.58 1214.1,153.67 				"/>
			</g>
			<g class="st3">
				<polygon class="st4" points="975.89,-15.62 1089.11,815.47 1090.12,815.47 976.9,-15.62 				"/>
			</g>
			<g class="st3">
				<polygon class="st4" points="1214.1,27.61 204.11,815.47 205.73,815.47 1214.1,28.87 				"/>
			</g>
			<g class="st3">
				<polygon class="st4" points="675.82,815.47 -13.02,610.62 -13.02,611.66 672.31,815.47 				"/>
			</g>
			<g class="st3">
				<polygon class="st4" points="1018.19,-15.62 1123.21,815.47 1124.22,815.47 1019.19,-15.62 				"/>
			</g>
			<g class="st3">
				<polygon class="st4" points="1214.1,730.32 -13.02,336.43 -13.02,337.48 1214.1,731.37 				"/>
			</g>
			<g class="st3">
				<polygon class="st4" points="93.91,-15.62 357.45,815.47 358.5,815.47 94.96,-15.62 				"/>
			</g>
			<g class="st3">
				<polygon class="st4" points="408.83,-15.62 724.25,815.47 725.32,815.47 409.9,-15.62 				"/>
			</g>
			<g class="st3">
				<polygon class="st4" points="840,-15.62 307.36,815.47 308.54,815.47 841.19,-15.62 				"/>
			</g>
			<g class="st3">
				<polygon class="st4" points="1214.1,771.99 -13.02,449.79 -13.02,450.82 1214.1,773.03 				"/>
			</g>
			<g class="st3">
				<polygon class="st4" points="1214.1,290.98 -13.02,99.64 -13.02,100.66 1214.1,291.99 				"/>
			</g>
			<g class="st3">
				<polygon class="st4" points="926.35,-15.62 270.72,815.47 271.99,815.47 927.63,-15.62 				"/>
			</g>
			<g class="st3">
				<polygon class="st4" points="1129.76,-15.62 392.59,815.47 393.93,815.47 1131.1,-15.62 				"/>
			</g>
			<g class="st3">
				<polygon class="st4" points="1214.1,311.9 768.92,815.47 770.25,815.47 1214.1,313.41 				"/>
			</g>
			<g class="st3">
				<polygon class="st4" points="1214.1,527.34 -13.02,203.42 -13.02,204.46 1214.1,528.38 				"/>
			</g>
			<g class="st3">
				<polygon class="st4" points="958.07,815.47 -13.02,540.16 -13.02,541.2 954.4,815.47 				"/>
			</g>
			<g class="st3">
				<polygon class="st4" points="636.58,-15.62 497.43,815.47 498.44,815.47 637.59,-15.62 				"/>
			</g>
			<g class="st3">
				<polygon class="st4" points="920.98,-15.62 -13.02,810.78 -13.02,812.11 922.48,-15.62 				"/>
			</g>
			<g class="st3">
				<polygon class="st4" points="270.51,-15.62 1214.1,723.21 1214.1,721.94 272.13,-15.62 				"/>
			</g>
			<g class="st3">
				<polygon class="st4" points="678.61,-15.62 -13.02,468.53 -13.02,469.75 680.36,-15.62 				"/>
			</g>
			<g class="st3">
				<polygon class="st4" points="434.8,-15.62 1214.1,738.76 1214.1,737.37 436.24,-15.62 				"/>
			</g>
			<g class="st3">
				<polygon class="st4" points="417.8,-15.62 -13.02,226.21 -13.02,227.35 419.84,-15.62 				"/>
			</g>
			<g class="st3">
				<polygon class="st4" points="1196.19,815.47 -13.02,281.96 -13.02,283.05 1193.71,815.47 				"/>
			</g>
			<g class="st3">
				<polygon class="st4" points="1214.1,144.66 475.15,815.47 476.63,815.47 1214.1,146.01 				"/>
			</g>
			<g class="st3">
				<polygon class="st4" points="96.88,-15.62 1130.81,815.47 1132.41,815.47 98.47,-15.62 				"/>
			</g>
			<g class="st3">
				<polygon class="st4" points="1029.4,-15.62 1214.1,82.28 1214.1,81.15 1031.54,-15.62 				"/>
			</g>
			<g class="st3">
				<polygon class="st4" points="801.86,-15.62 -13.02,813.75 -13.02,815.18 803.26,-15.62 				"/>
			</g>
			<g class="st3">
				<polygon class="st4" points="571.08,-15.62 944.27,815.47 945.36,815.47 572.18,-15.62 				"/>
			</g>
			<g class="st3">
				<polygon class="st4" points="979.26,-15.62 718.2,815.47 719.24,815.47 980.31,-15.62 				"/>
			</g>
			<g class="st3">
				<polygon class="st4" points="769.58,-15.62 592.74,815.47 593.76,815.47 770.6,-15.62 				"/>
			</g>
			<g class="st3">
				<polygon class="st4" points="1105.21,-15.62 890.93,815.47 891.96,815.47 1106.24,-15.62 				"/>
			</g>
			<g class="st3">
				<polygon class="st4" points="182.92,-15.62 63.13,815.47 64.14,815.47 183.93,-15.62 				"/>
			</g>
			<g class="st3">
				<polygon class="st4" points="476.8,-15.62 284.2,815.47 285.23,815.47 477.83,-15.62 				"/>
			</g>
			<g class="st3">
				<polygon class="st4" points="627.3,815.47 -13.02,405.89 -13.02,407.08 625.44,815.47 				"/>
			</g>
			<g class="st3">
				<polygon class="st4" points="1143.61,-15.62 688.4,815.47 689.54,815.47 1144.75,-15.62 				"/>
			</g>
			<g class="st3">
				<polygon class="st4" points="351.45,-15.62 83.57,815.47 84.62,815.47 352.5,-15.62 				"/>
			</g>
			<g class="st3">
				<polygon class="st4" points="915.83,815.47 -13.02,43.26 -13.02,44.56 914.26,815.47 				"/>
			</g>
			<g class="st3">
				<polygon class="st4" points="917.73,815.47 -13.02,449.55 -13.02,450.62 915,815.47 				"/>
			</g>
			<g class="st3">
				<polygon class="st4" points="1017.77,-15.62 314.77,815.47 316.08,815.47 1019.08,-15.62 				"/>
			</g>
			<g class="st3">
				<polygon class="st4" points="253.08,-15.62 1023.8,815.47 1025.16,815.47 254.44,-15.62 				"/>
			</g>
			<g class="st3">
				<polygon class="st4" points="500.21,-15.62 521.98,815.47 522.99,815.47 501.21,-15.62 				"/>
			</g>
			<g class="st3">
				<polygon class="st4" points="578.02,-15.62 353.56,815.47 354.59,815.47 579.05,-15.62 				"/>
			</g>
			<g class="st3">
				<polygon class="st4" points="710.03,-15.62 1214.1,499.01 1214.1,497.58 711.43,-15.62 				"/>
			</g>
			<g class="st3">
				<polygon class="st4" points="655.98,-15.62 1214.1,652.93 1214.1,651.37 657.28,-15.62 				"/>
			</g>
			<g class="st3">
				<polygon class="st4" points="832.21,-15.62 514.76,301.84 515.46,302.54 833.62,-15.62 				"/>
			</g>
			<g class="st3">
				<polygon class="st4" points="1003.47,815.47 -13.02,-5.41 -13.02,-4.12 1001.88,815.47 				"/>
			</g>
			<g class="st3">
				<polygon class="st4" points="749.8,-15.62 93.39,815.47 94.66,815.47 751.07,-15.62 				"/>
			</g>
			<g class="st3">
				<polygon class="st4" points="1214.1,351.75 -13.02,339.82 -13.02,340.82 1214.1,352.75 				"/>
			</g>
			<g class="st3">
				<rect x="199.43" y="-15.62" class="st4" width="1" height="831.08"/>
			</g>
			<g class="st3">
				<polygon class="st4" points="381.44,-15.62 226.56,815.47 227.58,815.47 382.46,-15.62 				"/>
			</g>
			<g class="st3">
				<polygon class="st4" points="429.45,-15.62 -13.02,512.08 -13.02,513.64 430.76,-15.62 				"/>
			</g>
			<g class="st3">
				<polygon class="st4" points="224.08,-15.62 504.03,815.47 505.08,815.47 225.14,-15.62 				"/>
			</g>
			<g class="st3">
				<polygon class="st4" points="930.84,-15.62 886.97,815.47 887.97,815.47 931.84,-15.62 				"/>
			</g>
			<g class="st3">
				<polygon class="st4" points="638.56,-15.62 960.52,815.47 961.59,815.47 639.63,-15.62 				"/>
			</g>
			<g class="st3">
				<polygon class="st4" points="-13.02,616.42 1185.83,115.31 1185.44,114.39 -13.02,615.34 				"/>
			</g>
			<g class="st3">
				<polygon class="st4" points="-13.02,153.34 -13.02,154.42 1155.42,622.96 1155.79,622.03 				"/>
			</g>
			<g class="st3">
				<polygon class="st4" points="705.73,-15.62 782.88,815.47 783.88,815.47 706.74,-15.62 				"/>
			</g>
			<g class="st3">
				<polygon class="st4" points="52.92,-15.62 701.22,815.47 702.48,815.47 54.19,-15.62 				"/>
			</g>
			<g class="st3">
				<polygon class="st4" points="324.34,-15.62 77.2,815.47 78.24,815.47 325.39,-15.62 				"/>
			</g>
			<g class="st3">
				<polygon class="st4" points="596.27,-15.62 329.5,815.47 330.55,815.47 597.32,-15.62 				"/>
			</g>
			<g class="st3">
				<polygon class="st4" points="1015.75,-15.62 -13.02,310.62 -13.02,311.66 1019.06,-15.62 				"/>
			</g>
			<g class="st3">
				<polygon class="st4" points="1214.1,221.8 -13.02,687.52 -13.02,688.59 1214.1,222.87 				"/>
			</g>
			<g class="st3">
				<polygon class="st4" points="1095.01,815.47 -13.02,105.32 -13.02,106.51 1093.15,815.47 				"/>
			</g>
			<g class="st3">
				<polygon class="st4" points="488.52,-15.62 270.3,815.47 271.33,815.47 489.55,-15.62 				"/>
			</g>
			<g class="st3">
				<polygon class="st4" points="848.88,-15.62 719.29,815.47 720.31,815.47 849.89,-15.62 				"/>
			</g>
			<g class="st3">
				<polygon class="st4" points="963.99,815.47 -13.02,44.71 -13.02,45.99 962.37,815.47 				"/>
			</g>
			<g class="st3">
				<polygon class="st4" points="736.44,815.47 -13.02,150.69 -13.02,152.03 734.94,815.47 				"/>
			</g>
			<g class="st3">
				<polygon class="st4" points="312.72,815.47 -13.02,527.49 -13.02,528.83 311.21,815.47 				"/>
			</g>
			<g class="st3">
				<polygon class="st4" points="734.74,-15.62 515.37,815.47 516.4,815.47 735.78,-15.62 				"/>
			</g>
			<g class="st3">
				<polygon class="st4" points="396.14,-15.62 160.52,815.47 161.56,815.47 397.18,-15.62 				"/>
			</g>
			<g class="st3">
				<polygon class="st4" points="1214.1,577.55 -13.02,372.09 -13.02,373.11 1214.1,578.57 				"/>
			</g>
			<g class="st3">
				<polygon class="st4" points="182.51,-15.62 917.85,815.47 919.18,815.47 183.84,-15.62 				"/>
			</g>
			<g class="st3">
				<polygon class="st4" points="1127.19,-15.62 476.46,815.47 477.73,815.47 1128.46,-15.62 				"/>
			</g>
			<g class="st3">
				<polygon class="st4" points="561.62,-15.62 1143.38,815.47 1144.6,815.47 562.84,-15.62 				"/>
			</g>
			<g class="st3">
				<polygon class="st4" points="1214.1,94.81 516.5,815.47 517.89,815.47 1214.1,96.25 				"/>
			</g>
			<g class="st3">
				<polygon class="st4" points="790.76,-15.62 1214.1,738.59 1214.1,736.55 791.91,-15.62 				"/>
			</g>
			<g class="st3">
				<polygon class="st4" points="639.21,-15.62 272.53,815.47 273.62,815.47 640.3,-15.62 				"/>
			</g>
			<g class="st3">
				<polygon class="st4" points="547.06,815.47 -13.02,198.48 -13.02,199.97 545.71,815.47 				"/>
			</g>
			<g class="st3">
				<polygon class="st4" points="991.54,-15.62 323.51,815.47 324.8,815.47 992.82,-15.62 				"/>
			</g>
			<g class="st3">
				<polygon class="st4" points="1214.1,489.64 1041.4,815.47 1042.53,815.47 1214.1,491.77 				"/>
			</g>
			<g class="st3">
				<polygon class="st4" points="351.68,-15.62 1197.54,815.47 1198.97,815.47 353.11,-15.62 				"/>
			</g>
			<g class="st3">
				<polygon class="st4" points="219.55,815.47 1177.06,385.51 1176.65,384.6 217.11,815.47 				"/>
			</g>
			<g class="st3">
				<polygon class="st4" points="771.26,815.47 -13.02,569.1 -13.02,570.15 767.93,815.47 				"/>
			</g>
			<g class="st3">
				<polygon class="st4" points="-13.02,460.06 -13.02,461.08 1203.87,720.02 1204.08,719.04 				"/>
			</g>
			<g class="st3">
				<polygon class="st4" points="237.19,815.47 -13.02,750.95 -13.02,751.98 233.19,815.47 				"/>
			</g>
			<g class="st3">
				<polygon class="st4" points="277,-15.62 1185.56,115.35 1185.71,114.36 284.02,-15.62 				"/>
			</g>
			<g class="st3">
				<polygon class="st4" points="-13.02,148.45 -13.02,149.48 1209.68,432.83 1209.9,431.86 				"/>
			</g>
			<g class="st3">
				<polygon class="st4" points="496.21,-15.62 -13.02,780.49 -13.02,782.35 497.39,-15.62 				"/>
			</g>
			<g class="st3">
				<polygon class="st4" points="560.26,815.47 -13.02,501.46 -13.02,502.6 558.18,815.47 				"/>
			</g>
			<g class="st3">
				<polygon class="st4" points="142.69,-15.62 1214.1,329.73 1214.1,328.68 145.95,-15.62 				"/>
			</g>
			<g class="st3">
				<polygon class="st4" points="840.39,-15.62 149.46,815.47 150.76,815.47 841.69,-15.62 				"/>
			</g>
			<g class="st3">
				<polygon class="st4" points="476.23,-15.62 149.5,815.47 150.57,815.47 477.3,-15.62 				"/>
			</g>
			<g class="st3">
				<polygon class="st4" points="857,815.47 -13.02,79.53 -13.02,80.84 855.45,815.47 				"/>
			</g>
			<g class="st3">
				<polygon class="st4" points="1163.89,-15.62 267.73,815.47 269.2,815.47 1165.36,-15.62 				"/>
			</g>
			<g class="st3">
				<polygon class="st4" points="1214.1,395.87 -13.02,428.02 -13.02,429.02 1214.1,396.87 				"/>
			</g>
			<g class="st3">
				<polygon class="st4" points="1214.1,543.01 -13.02,211.6 -13.02,212.63 1214.1,544.05 				"/>
			</g>
			<g class="st3">
				<polygon class="st4" points="1214.1,178.1 1083.68,815.47 1084.7,815.47 1214.1,183.09 				"/>
			</g>
			<g class="st3">
				<polygon class="st4" points="1214.1,382.57 772.15,815.47 773.58,815.47 1214.1,383.97 				"/>
			</g>
			<g class="st3">
				<polygon class="st4" points="672.94,815.47 1207.91,368.85 1207.27,368.08 671.38,815.47 				"/>
			</g>
			<g class="st3">
				<polygon class="st4" points="1061.53,815.47 662.61,416.55 661.9,417.25 1060.11,815.47 				"/>
			</g>
			<g class="st3">
				<polygon class="st4" points="891.35,-15.62 220.21,815.47 221.49,815.47 892.64,-15.62 				"/>
			</g>
			<g class="st3">
				<polygon class="st4" points="133.7,-15.62 1185.93,815.47 1187.54,815.47 135.31,-15.62 				"/>
			</g>
			<g class="st3">
				<polygon class="st4" points="622.7,-15.62 614.61,815.47 615.61,815.47 623.7,-15.62 				"/>
			</g>
			<g class="st3">
				<rect x="-13.02" y="101.22" class="st4" width="1227.12" height="1"/>
			</g>
			<g class="st3">
				<polygon class="st4" points="-13.02,98.16 -13.02,99.18 1200.45,325.32 1200.63,324.34 				"/>
			</g>
			<g class="st3">
				<polygon class="st4" points="564.83,-15.62 1214.1,528.79 1214.1,527.49 566.39,-15.62 				"/>
			</g>
			<g class="st3">
				<polygon class="st4" points="1214.1,47.04 -13.02,460.39 -13.02,461.44 1214.1,48.09 				"/>
			</g>
			<g class="st3">
				<polygon class="st4" points="654.91,815.47 -13.02,780.21 -13.02,781.21 635.95,815.47 				"/>
			</g>
			<g class="st3">
				<polygon class="st4" points="1214.1,449.69 269.89,815.47 272.66,815.47 1214.1,450.76 				"/>
			</g>
			<g class="st3">
				<polygon class="st4" points="427.8,-15.62 775.18,815.47 776.26,815.47 428.88,-15.62 				"/>
			</g>
			<g class="st3">
				<polygon class="st4" points="798.03,-15.62 464.77,815.47 465.84,815.47 799.11,-15.62 				"/>
			</g>
			<g class="st3">
				<polygon class="st4" points="1214.1,572.42 -13.02,686.33 -13.02,687.33 1214.1,573.42 				"/>
			</g>
			<g class="st3">
				<polygon class="st4" points="-1.34,-15.62 111.88,815.47 112.89,815.47 -0.33,-15.62 				"/>
			</g>
			<g class="st3">
				<polygon class="st4" points="953.88,-15.62 -13.02,738.63 -13.02,739.9 955.51,-15.62 				"/>
			</g>
			<g class="st3">
				<polygon class="st4" points="251.82,-15.62 1214.1,270.54 1214.1,269.5 255.33,-15.62 				"/>
			</g>
			<g class="st3">
				<polygon class="st4" points="71.09,815.47 -13.02,149.86 -13.02,157.83 70.08,815.47 				"/>
			</g>
			<g class="st3">
				<polygon class="st4" points="1214.1,546.17 -13.02,152.28 -13.02,153.33 1214.1,547.22 				"/>
			</g>
			<g class="st3">
				<polygon class="st4" points="721.25,-15.62 984.79,815.47 985.84,815.47 722.3,-15.62 				"/>
			</g>
			<g class="st3">
				<polygon class="st4" points="351.32,-15.62 666.73,815.47 667.8,815.47 352.39,-15.62 				"/>
			</g>
			<g class="st3">
				<polygon class="st4" points="819.06,-15.62 286.41,815.47 287.59,815.47 820.24,-15.62 				"/>
			</g>
			<g class="st3">
				<polygon class="st4" points="1214.1,426.67 -13.02,104.46 -13.02,105.5 1214.1,427.71 				"/>
			</g>
			<g class="st3">
				<polygon class="st4" points="-13.02,574.25 -13.02,575.26 1211.84,766.25 1211.99,765.26 				"/>
			</g>
			<g class="st3">
				<polygon class="st4" points="863,-15.62 207.36,815.47 208.64,815.47 864.27,-15.62 				"/>
			</g>
			<g class="st3">
				<polygon class="st4" points="745.96,-15.62 8.79,815.47 10.13,815.47 747.29,-15.62 				"/>
			</g>
			<g class="st3">
				<polygon class="st4" points="369.49,-15.62 -13.02,417.06 -13.02,418.57 370.83,-15.62 				"/>
			</g>
			<g class="st3">
				<polygon class="st4" points="1214.1,673.18 -13.02,349.26 -13.02,350.3 1214.1,674.21 				"/>
			</g>
			<g class="st3">
				<polygon class="st4" points="1214.1,338.51 -13.02,-9.39 -13.02,-8.35 1214.1,339.54 				"/>
			</g>
			<g class="st3">
				<polygon class="st4" points="605.51,-15.62 466.36,815.47 467.38,815.47 606.53,-15.62 				"/>
			</g>
			<g class="st3">
				<polygon class="st4" points="1107.35,-15.62 168.05,815.47 169.56,815.47 1108.85,-15.62 				"/>
			</g>
			<g class="st3">
				<polygon class="st4" points="761.29,815.47 -13.02,209.18 -13.02,210.45 759.67,815.47 				"/>
			</g>
			<g class="st3">
				<polygon class="st4" points="1214.1,306.2 486.58,815.47 488.32,815.47 1214.1,307.42 				"/>
			</g>
			<g class="st3">
				<polygon class="st4" points="609.19,815.47 -13.02,213.15 -13.02,214.54 607.76,815.47 				"/>
			</g>
			<g class="st3">
				<polygon class="st4" points="1214.1,563.23 764.73,815.47 766.77,815.47 1214.1,564.38 				"/>
			</g>
			<g class="st3">
				<polygon class="st4" points="1214.1,613.29 -13.02,71.88 -13.02,72.97 1214.1,614.38 				"/>
			</g>
			<g class="st3">
				<polygon class="st4" points="673.98,-15.62 -13.02,608.02 -13.02,609.37 675.46,-15.62 				"/>
			</g>
			<g class="st3">
				<polygon class="st4" points="936.58,815.47 -13.02,52.17 -13.02,53.46 934.98,815.47 				"/>
			</g>
			<g class="st3">
				<polygon class="st4" points="1214.1,32.36 444.67,815.47 446.07,815.47 1214.1,33.78 				"/>
			</g>
			<g class="st3">
				<polygon class="st4" points="127.8,-15.62 500.98,815.47 502.08,815.47 128.89,-15.62 				"/>
			</g>
			<g class="st3">
				<polygon class="st4" points="392.03,-15.62 130.97,815.47 132.01,815.47 393.08,-15.62 				"/>
			</g>
			<g class="st3">
				<polygon class="st4" points="512.46,-15.62 335.61,815.47 336.64,815.47 513.48,-15.62 				"/>
			</g>
			<g class="st3">
				<polygon class="st4" points="216.5,-15.62 2.22,815.47 3.26,815.47 217.54,-15.62 				"/>
			</g>
			<g class="st3">
				<polygon class="st4" points="1038.65,-15.62 918.85,815.47 919.87,815.47 1039.66,-15.62 				"/>
			</g>
			<g class="st3">
				<polygon class="st4" points="821.93,-15.62 629.33,815.47 630.36,815.47 822.96,-15.62 				"/>
			</g>
			<g class="st3">
				<polygon class="st4" points="390.21,-15.62 1191.89,497.17 1192.42,496.33 392.07,-15.62 				"/>
			</g>
			<g class="st3">
				<polygon class="st4" points="433.41,-15.62 -13.02,799.43 -13.02,801.51 434.55,-15.62 				"/>
			</g>
			<g class="st3">
				<polygon class="st4" points="1027.07,-15.62 759.19,815.47 760.24,815.47 1028.12,-15.62 				"/>
			</g>
			<g class="st3">
				<polygon class="st4" points="119.69,-15.62 1119.36,815.47 1120.92,815.47 121.25,-15.62 				"/>
			</g>
			<g class="st3">
				<polygon class="st4" points="50.82,-15.62 1214.1,441.72 1214.1,440.64 53.55,-15.62 				"/>
			</g>
			<g class="st3">
				<polygon class="st4" points="821.75,-15.62 118.76,815.47 120.07,815.47 823.06,-15.62 				"/>
			</g>
			<g class="st3">
				<polygon class="st4" points="24.11,-15.62 794.83,815.47 796.19,815.47 25.47,-15.62 				"/>
			</g>
			<g class="st3">
				<polygon class="st4" points="571.29,-15.62 593.07,815.47 594.07,815.47 572.3,-15.62 				"/>
			</g>
			<g class="st3">
				<polygon class="st4" points="754.48,-15.62 530.03,815.47 531.06,815.47 755.52,-15.62 				"/>
			</g>
			<g class="st3">
				<polygon class="st4" points="336.64,815.47 -13.02,458.48 -13.02,459.91 335.24,815.47 				"/>
			</g>
			<g class="st3">
				<polygon class="st4" points="397.91,815.47 -13.02,323.23 -13.02,324.79 396.61,815.47 				"/>
			</g>
			<g class="st3">
				<polygon class="st4" points="313.33,815.47 580.83,547.96 580.13,547.25 311.91,815.47 				"/>
			</g>
			<g class="st3">
				<polygon class="st4" points="30.27,-15.62 1059.4,815.47 1061,815.47 31.86,-15.62 				"/>
			</g>
			<g class="st3">
				<polygon class="st4" points="1040.38,-15.62 383.96,815.47 385.24,815.47 1041.65,-15.62 				"/>
			</g>
			<g class="st3">
				<polygon class="st4" points="1214.1,510 -13.02,498.07 -13.02,499.07 1214.1,511 				"/>
			</g>
			<g class="st3">
				<rect x="895.16" y="-15.62" class="st4" width="1" height="831.08"/>
			</g>
			<g class="st3">
				<polygon class="st4" points="877.32,-15.62 722.44,815.47 723.45,815.47 878.33,-15.62 				"/>
			</g>
			<g class="st3">
				<polygon class="st4" points="1214.1,210.35 706.71,815.47 708.02,815.47 1214.1,211.9 				"/>
			</g>
			<g class="st3">
				<polygon class="st4" points="573.68,-15.62 853.63,815.47 854.68,815.47 574.74,-15.62 				"/>
			</g>
			<g class="st3">
				<polygon class="st4" points="210.26,-15.62 166.38,815.47 167.39,815.47 211.26,-15.62 				"/>
			</g>
			<g class="st3">
				<polygon class="st4" points="114.65,-15.62 436.61,815.47 437.68,815.47 115.72,-15.62 				"/>
			</g>
			<g class="st3">
				<polygon class="st4" points="-13.02,711.86 1197.36,205.93 1196.97,205.01 -13.02,710.77 				"/>
			</g>
			<g class="st3">
				<polygon class="st4" points="1214.1,733.33 -13.02,241.26 -13.02,242.34 1214.1,734.41 				"/>
			</g>
			<g class="st3">
				<polygon class="st4" points="322.65,-15.62 399.8,815.47 400.8,815.47 323.66,-15.62 				"/>
			</g>
			<g class="st3">
				<polygon class="st4" points="368.37,-15.62 1016.67,815.47 1017.94,815.47 369.64,-15.62 				"/>
			</g>
			<g class="st3">
				<polygon class="st4" points="1048.56,-15.62 801.41,815.47 802.45,815.47 1049.6,-15.62 				"/>
			</g>
			<g class="st3">
				<polygon class="st4" points="797.47,-15.62 530.7,815.47 531.75,815.47 798.52,-15.62 				"/>
			</g>
			<g class="st3">
				<polygon class="st4" points="1214.1,511.65 256.04,815.47 259.35,815.47 1214.1,512.7 				"/>
			</g>
			<g class="st3">
				<polygon class="st4" points="1214.1,129.13 -13.02,594.85 -13.02,595.92 1214.1,130.2 				"/>
			</g>
			<g class="st3">
				<polygon class="st4" points="1214.1,802.77 -13.02,16.29 -13.02,17.48 1214.1,803.96 				"/>
			</g>
			<g class="st3">
				<polygon class="st4" points="853.66,-15.62 635.44,815.47 636.47,815.47 854.69,-15.62 				"/>
			</g>
			<g class="st3">
				<polygon class="st4" points="399.15,-15.62 269.56,815.47 270.57,815.47 400.16,-15.62 				"/>
			</g>
			<g class="st3">
				<polygon class="st4" points="81.55,-15.62 1135.03,815.47 1136.65,815.47 83.17,-15.62 				"/>
			</g>
			<g class="st3">
				<polygon class="st4" points="316.38,-15.62 1192.44,761.45 1193.11,760.7 317.88,-15.62 				"/>
			</g>
			<g class="st3">
				<polygon class="st4" points="739.91,-15.62 1207.81,398.04 1208.48,397.3 741.41,-15.62 				"/>
			</g>
			<g class="st3">
				<polygon class="st4" points="608.66,-15.62 389.29,815.47 390.32,815.47 609.7,-15.62 				"/>
			</g>
			<g class="st3">
				<polygon class="st4" points="964.51,-15.62 728.9,815.47 729.94,815.47 965.55,-15.62 				"/>
			</g>
			<g class="st3">
				<polygon class="st4" points="1214.1,493.69 -13.02,288.23 -13.02,289.24 1214.1,494.7 				"/>
			</g>
			<g class="st3">
				<polygon class="st4" points="146.24,-15.62 881.57,815.47 882.91,815.47 147.57,-15.62 				"/>
			</g>
			<g class="st3">
				<polygon class="st4" points="674.28,-15.62 23.55,815.47 24.82,815.47 675.55,-15.62 				"/>
			</g>
			<g class="st3">
				<polygon class="st4" points="513.39,815.47 -13.02,63.45 -13.02,65.2 512.17,815.47 				"/>
			</g>
			<g class="st3">
				<polygon class="st4" points="643.73,-15.62 -13.02,662.83 -13.02,664.27 645.12,-15.62 				"/>
			</g>
			<g class="st3">
				<polygon class="st4" points="291.45,815.47 -13.02,273.03 -13.02,275.07 290.31,815.47 				"/>
			</g>
			<g class="st3">
				<polygon class="st4" points="860.64,-15.62 493.97,815.47 495.06,815.47 861.74,-15.62 				"/>
			</g>
			<g class="st3">
				<polygon class="st4" points="517.16,-15.62 1214.1,752.13 1214.1,750.64 518.51,-15.62 				"/>
			</g>
			<g class="st3">
				<polygon class="st4" points="828.3,-15.62 160.27,815.47 161.55,815.47 829.58,-15.62 				"/>
			</g>
			<g class="st3">
				<polygon class="st4" points="96.35,-15.62 -13.02,190.73 -13.02,192.86 97.48,-15.62 				"/>
			</g>
			<g class="st3">
				<polygon class="st4" points="706.83,815.47 -13.02,108.19 -13.02,109.59 705.4,815.47 				"/>
			</g>
			<g class="st3">
				<polygon class="st4" points="1007.44,-15.62 -13.02,442.61 -13.02,443.7 1009.88,-15.62 				"/>
			</g>
			<g class="st3">
				<polygon class="st4" points="174.8,-15.62 1214.1,310.86 1214.1,309.81 178.14,-15.62 				"/>
			</g>
			<g class="st3">
				<polygon class="st4" points="1214.1,409.79 -13.02,148.67 -13.02,149.69 1214.1,410.81 				"/>
			</g>
			<g class="st3">
				<polygon class="st4" points="672.78,-15.62 1214.1,123.95 1214.1,122.92 676.78,-15.62 				"/>
			</g>
			<g class="st3">
				<polygon class="st4" points="474.14,815.47 -13.02,745.24 -13.02,746.26 467.12,815.47 				"/>
			</g>
			<g class="st3">
				<polygon class="st4" points="1214.1,723.08 -13.02,438.7 -13.02,439.73 1214.1,724.11 				"/>
			</g>
			<g class="st3">
				<polygon class="st4" points="1178.77,-15.62 647.17,815.47 648.36,815.47 1179.96,-15.62 				"/>
			</g>
			<g class="st3">
				<polygon class="st4" points="456.3,-15.62 1145.62,361.95 1146.1,361.07 458.38,-15.62 				"/>
			</g>
			<g class="st3">
				<polygon class="st4" points="807.58,815.47 -13.02,550.96 -13.02,552.01 804.32,815.47 				"/>
			</g>
			<g class="st3">
				<polygon class="st4" points="1003.76,-15.62 312.83,815.47 314.13,815.47 1005.06,-15.62 				"/>
			</g>
			<g class="st3">
				<polygon class="st4" points="981.2,-15.62 654.47,815.47 655.54,815.47 982.27,-15.62 				"/>
			</g>
			<g class="st3">
				<polygon class="st4" points="192.98,-15.62 1175.48,815.47 1177.03,815.47 194.53,-15.62 				"/>
			</g>
			<g class="st3">
				<polygon class="st4" points="898.15,-15.62 1.98,815.47 3.45,815.47 899.62,-15.62 				"/>
			</g>
			<g class="st3">
				<polygon class="st4" points="1214.1,420.4 -13.02,452.55 -13.02,453.55 1214.1,421.4 				"/>
			</g>
			<g class="st3">
				<polygon class="st4" points="1214.1,663.37 -13.02,331.95 -13.02,332.99 1214.1,664.41 				"/>
			</g>
			<g class="st3">
				<polygon class="st4" points="37.28,-15.62 -13.02,230.22 -13.02,235.21 38.31,-15.62 				"/>
			</g>
			<g class="st3">
				<polygon class="st4" points="390.79,-15.62 -13.02,379.91 -13.02,381.31 392.22,-15.62 				"/>
			</g>
			<g class="st3">
				<polygon class="st4" points="500.61,-15.62 -13.02,413.18 -13.02,414.48 502.17,-15.62 				"/>
			</g>
			<g class="st3">
				<polygon class="st4" points="-2.09,-15.62 448.75,435.23 449.46,434.52 -0.68,-15.62 				"/>
			</g>
			<g class="st3">
				<polygon class="st4" points="931.8,-15.62 260.65,815.47 261.94,815.47 933.08,-15.62 				"/>
			</g>
			<g class="st3">
				<polygon class="st4" points="911.92,815.47 -13.02,84.92 -13.02,86.2 910.31,815.47 				"/>
			</g>
			<g class="st3">
				<polygon class="st4" points="496.25,-15.62 488.17,815.47 489.17,815.47 497.25,-15.62 				"/>
			</g>
			<g class="st3">
				<rect x="-13.02" y="749.55" class="st4" width="1227.12" height="1"/>
			</g>
			<g class="st3">
				<polygon class="st4" points="1214.1,769.31 -13.02,540.63 -13.02,541.64 1214.1,770.33 				"/>
			</g>
			<g class="st3">
				<polygon class="st4" points="484.6,815.47 -13.02,398.21 -13.02,399.52 483.04,815.47 				"/>
			</g>
			<g class="st3">
				<polygon class="st4" points="1214.1,360.11 -13.02,773.45 -13.02,774.51 1214.1,361.16 				"/>
			</g>
			<g class="st3">
				<polygon class="st4" points="-13.02,10.52 -13.02,11.52 1175.18,74.25 1175.23,73.25 				"/>
			</g>
			<g class="st3">
				<polygon class="st4" points="972.73,-15.62 -13.02,366.25 -13.02,367.32 975.5,-15.62 				"/>
			</g>
			<g class="st3">
				<polygon class="st4" points="1214.1,600.64 -13.02,183.61 -13.02,184.67 1214.1,601.69 				"/>
			</g>
			<g class="st3">
				<polygon class="st4" points="250.97,-15.62 668.87,815.47 669.98,815.47 252.08,-15.62 				"/>
			</g>
			<g class="st3">
				<polygon class="st4" points="347.32,-15.62 -13.02,477.62 -13.02,479.31 348.56,-15.62 				"/>
			</g>
			<g class="st3">
				<polygon class="st4" points="658.96,-15.62 608.16,815.47 609.16,815.47 659.96,-15.62 				"/>
			</g>
			<g class="st3">
				<polygon class="st4" points="1214.1,391.12 534.59,815.47 536.48,815.47 1214.1,392.3 				"/>
			</g>
			<g class="st3">
				<polygon class="st4" points="1214.1,-7.64 -13.02,722.41 -13.02,723.57 1214.1,-6.48 				"/>
			</g>
			<g class="st3">
				<polygon class="st4" points="691.96,815.47 -13.02,503.65 -13.02,504.74 689.49,815.47 				"/>
			</g>
			<g class="st3">
				<polygon class="st4" points="1214.1,497.5 -13.02,34.5 -13.02,35.57 1214.1,498.57 				"/>
			</g>
			<g class="st3">
				<polygon class="st4" points="435.35,-15.62 671.92,815.47 672.96,815.47 436.39,-15.62 				"/>
			</g>
			<g class="st3">
				<polygon class="st4" points="1214.1,78.86 115.16,815.47 116.96,815.47 1214.1,80.06 				"/>
			</g>
			<g class="st3">
				<polygon class="st4" points="329.93,-15.62 -13.02,268.94 -13.02,270.24 331.5,-15.62 				"/>
			</g>
			<g class="st3">
				<polygon class="st4" points="487.75,-15.62 638.42,815.47 639.44,815.47 488.76,-15.62 				"/>
			</g>
			<g class="st3">
				<polygon class="st4" points="673.38,-15.62 775.03,815.47 776.03,815.47 674.39,-15.62 				"/>
			</g>
			<g class="st3">
				<polygon class="st4" points="1073.64,-15.62 1176.67,815.47 1177.67,815.47 1074.64,-15.62 				"/>
			</g>
			<g class="st3">
				<polygon class="st4" points="752.89,-15.62 -13.02,496.32 -13.02,497.52 754.69,-15.62 				"/>
			</g>
			<g class="st3">
				<polygon class="st4" points="1214.1,258.61 347.29,815.47 349.14,815.47 1214.1,259.8 				"/>
			</g>
			<g class="st3">
				<polygon class="st4" points="299.35,-15.62 973.32,815.47 974.61,815.47 300.63,-15.62 				"/>
			</g>
			<g class="st3">
				<rect x="445.59" y="-15.62" class="st4" width="1" height="831.08"/>
			</g>
			<g class="st3">
				<polygon class="st4" points="679.66,-15.62 -13.02,112.58 -13.02,113.59 685.16,-15.62 				"/>
			</g>
			<g class="st3">
				<polygon class="st4" points="130.44,-15.62 36.3,815.47 37.31,815.47 131.45,-15.62 				"/>
			</g>
			<g class="st3">
				<polygon class="st4" points="1214.1,92.97 -13.02,658.38 -13.02,659.48 1214.1,94.07 				"/>
			</g>
			<g class="st3">
				<polygon class="st4" points="840.6,-15.62 851.88,815.47 852.88,815.47 841.6,-15.62 				"/>
			</g>
			<g class="st3">
				<polygon class="st4" points="1214.1,60.43 -13.02,271.36 -13.02,272.38 1214.1,61.45 				"/>
			</g>
			<g class="st3">
				<polygon class="st4" points="199.29,-15.62 258.14,815.47 259.14,815.47 200.29,-15.62 				"/>
			</g>
			<g class="st3">
				<polygon class="st4" points="543.96,-15.62 1214.1,192.76 1214.1,191.71 547.32,-15.62 				"/>
			</g>
			<g class="st3">
				<polygon class="st4" points="793.49,-15.62 1214.1,681.46 1214.1,679.52 794.66,-15.62 				"/>
			</g>
			<g class="st3">
				<polygon class="st4" points="512.8,-15.62 1128.51,815.47 1129.75,815.47 514.05,-15.62 				"/>
			</g>
			<g class="st3">
				<polygon class="st4" points="1044.42,-15.62 1214.1,235.11 1214.1,233.33 1045.63,-15.62 				"/>
			</g>
			<g class="st3">
				<polygon class="st4" points="182.19,815.47 -13.02,585.63 -13.02,587.18 180.88,815.47 				"/>
			</g>
			<g class="st3">
				<polygon class="st4" points="7.59,-15.62 600.35,815.47 601.58,815.47 8.82,-15.62 				"/>
			</g>
			<g class="st3">
				<polygon class="st4" points="1214.1,489.17 71.72,815.47 75.35,815.47 1214.1,490.21 				"/>
			</g>
			<g class="st3">
				<polygon class="st4" points="877.59,-15.62 1184.28,815.47 1185.34,815.47 878.65,-15.62 				"/>
			</g>
			<g class="st3">
				<polygon class="st4" points="299.64,815.47 -13.02,288.47 -13.02,290.43 298.48,815.47 				"/>
			</g>
			<g class="st3">
				<polygon class="st4" points="1214.1,254.24 -13.02,444.36 -13.02,445.37 1214.1,255.25 				"/>
			</g>
			<g class="st3">
				<polygon class="st4" points="1214.1,270.48 148.37,815.47 150.57,815.47 1214.1,271.61 				"/>
			</g>
			<g class="st3">
				<polygon class="st4" points="568.98,-15.62 690.49,815.47 691.5,815.47 569.99,-15.62 				"/>
			</g>
			<g class="st3">
				<polygon class="st4" points="1214.1,134.52 -13.02,164.24 -13.02,165.25 1214.1,135.52 				"/>
			</g>
			<g class="st3">
				<polygon class="st4" points="83.44,-15.62 1075.52,815.47 1077.08,815.47 85,-15.62 				"/>
			</g>
			<g class="st3">
				<polygon class="st4" points="170.42,-15.62 719.08,815.47 720.28,815.47 171.62,-15.62 				"/>
			</g>
			<g class="st3">
				<polygon class="st4" points="330.59,-15.62 343.37,190.73 344.37,190.67 331.59,-15.62 				"/>
			</g>
			<g class="st3">
				<polygon class="st4" points="1214.1,176 -13.02,384.05 -13.02,385.07 1214.1,177.01 				"/>
			</g>
			<g class="st3">
				<polygon class="st4" points="288.4,-15.62 438.58,815.47 439.59,815.47 289.41,-15.62 				"/>
			</g>
			<g class="st3">
				<polygon class="st4" points="611.35,-15.62 -13.02,677.54 -13.02,679.03 612.7,-15.62 				"/>
			</g>
			<g class="st3">
				<polygon class="st4" points="378.91,815.47 -13.02,469.27 -13.02,470.61 377.4,815.47 				"/>
			</g>
			<g class="st3">
				<polygon class="st4" points="493.2,815.47 -13.02,167.28 -13.02,168.9 491.93,815.47 				"/>
			</g>
			<g class="st3">
				<polygon class="st4" points="53.45,815.47 -13.02,374.19 -13.02,380.9 52.44,815.47 				"/>
			</g>
			<g class="st3">
				<polygon class="st4" points="1195.43,815.47 -13.02,306.52 -13.02,307.6 1192.86,815.47 				"/>
			</g>
			<g class="st3">
				<polygon class="st4" points="937.9,-15.62 1214.1,255.58 1214.1,254.18 939.33,-15.62 				"/>
			</g>
			<g class="st3">
				<polygon class="st4" points="723.86,-15.62 1214.1,165.52 1214.1,164.45 726.75,-15.62 				"/>
			</g>
			<g class="st3">
				<polygon class="st4" points="1214.1,109.67 971.91,815.47 972.97,815.47 1214.1,112.75 				"/>
			</g>
			<g class="st3">
				<polygon class="st4" points="1184.29,-15.62 942.08,815.47 943.12,815.47 1185.33,-15.62 				"/>
			</g>
			<g class="st3">
				<polygon class="st4" points="980.08,815.47 1206.45,312.69 1205.54,312.28 978.98,815.47 				"/>
			</g>
			<g class="st3">
				<polygon class="st4" points="993.35,815.47 1201.91,242.62 1200.97,242.28 992.28,815.47 				"/>
			</g>
			<g class="st3">
				<polygon class="st4" points="872.21,815.47 1190.08,37.39 1189.16,37.01 871.13,815.47 				"/>
			</g>
			<g class="st3">
				<polygon class="st4" points="1104.59,-15.62 580.06,815.47 581.24,815.47 1105.77,-15.62 				"/>
			</g>
			<g class="st3">
				<polygon class="st4" points="232.39,815.47 -13.02,547.51 -13.02,548.99 231.03,815.47 				"/>
			</g>
			<g class="st3">
				<polygon class="st4" points="111.77,815.47 -13.02,670.02 -13.02,671.55 110.45,815.47 				"/>
			</g>
			<g class="st3">
				<polygon class="st4" points="36.45,815.47 -13.02,756.83 -13.02,758.38 35.14,815.47 				"/>
			</g>
			<g class="st3">
				<polygon class="st4" points="62.74,-15.62 -13.02,128.75 -13.02,130.9 63.86,-15.62 				"/>
			</g>
			<g class="st3">
				<polygon class="st4" points="116.9,-15.62 -13.02,184.62 -13.02,186.45 118.09,-15.62 				"/>
			</g>
			<g class="st3">
				<polygon class="st4" points="195.63,-15.62 -13.02,234.9 -13.02,236.46 196.93,-15.62 				"/>
			</g>
			<g class="st3">
				<polygon class="st4" points="274.29,-15.62 -13.02,312.28 -13.02,313.79 275.62,-15.62 				"/>
			</g>
			<g class="st3">
				<polygon class="st4" points="409.1,-15.62 -13.02,315.44 -13.02,316.71 410.72,-15.62 				"/>
			</g>
			<g class="st3">
				<polygon class="st4" points="223.35,-15.62 -13.02,233.69 -13.02,235.15 224.73,-15.62 				"/>
			</g>
			<g class="st3">
				<polygon class="st4" points="132.2,-15.62 -13.02,171.12 -13.02,172.75 133.47,-15.62 				"/>
			</g>
			<g class="st3">
				<polygon class="st4" points="969.69,-15.62 1214.1,449.8 1214.1,447.65 970.82,-15.62 				"/>
			</g>
			<g class="st3">
				<polygon class="st4" points="1031,-15.62 1170.13,299.55 1171.04,299.15 1032.1,-15.62 				"/>
			</g>
			<g class="st3">
				<polygon class="st4" points="1116.25,-15.62 1170.12,121.32 1171.05,120.96 1117.33,-15.62 				"/>
			</g>
			<g class="st3">
				<polygon class="st4" points="1144.7,-15.62 1170.1,97.72 1171.08,97.5 1145.72,-15.62 				"/>
			</g>
			<g class="st3">
				<polygon class="st4" points="1177.1,-15.62 1179.47,1.07 1180.46,0.93 1178.11,-15.62 				"/>
			</g>
			<g class="st3">
				<polygon class="st4" points="976.06,-15.62 1197.09,366.47 1197.95,365.97 977.21,-15.62 				"/>
			</g>
			<g class="st3">
				<polygon class="st4" points="864.81,-15.62 1188.1,408.66 1188.89,408.05 866.07,-15.62 				"/>
			</g>
			<g class="st3">
				<polygon class="st4" points="499.9,-15.62 11.45,815.47 12.6,815.47 501.06,-15.62 				"/>
			</g>
			<g class="st3">
				<polygon class="st4" points="267.57,-15.62 -13.02,604.82 -13.02,607.25 268.67,-15.62 				"/>
			</g>
			<g class="st3">
				<polygon class="st4" points="371.11,-15.62 -13.02,743.08 -13.02,745.3 372.23,-15.62 				"/>
			</g>
			<g class="st3">
				<polygon class="st4" points="89.71,-15.62 -13.02,488.88 -13.02,493.9 90.74,-15.62 				"/>
			</g>
		</g>
	</g>
</g>
<g id="_x38_00_x__x_800_px_1_">
</g>
<g id="DESIGNED_BY_FREEPIK">
	<g id="Botón_2_-_Verde">
	</g>
	<g id="Botón_3_-_Azul">
	</g>
	<g id="Botón_4_-_Rosa">
	</g>
	<g id="Viñeta_1_-_Gris">
	</g>
	<g id="Viñeta_3_-_Siguiente">
	</g>
	<g id="Viñeta_6_-_Gris">
	</g>
	<g id="Barra_de_carga_3">
	</g>
</g>
</svg>
